<svg width="1280" height="720" xmlns="http://www.w3.org/2000/svg" xmlns:xlink="http://www.w3.org/1999/xlink" overflow="hidden"><defs><clipPath id="clip0"><rect x="0" y="0" width="1280" height="720"/></clipPath></defs><g clip-path="url(#clip0)"><rect x="0" y="0" width="1280" height="720" fill="#FFFFFF"/><path d="M510 129C510 98.0721 567.308 73 638 73 708.692 73 766 98.0721 766 129 766 159.928 708.692 185 638 185 567.308 185 510 159.928 510 129Z" stroke="#000000" stroke-width="2" stroke-miterlimit="8" fill="#FFFFFF" fill-rule="evenodd"/><text font-family="Calibri,Calibri_MSFontService,sans-serif" font-weight="700" font-size="12" transform="translate(560.712 133)">SandwichManagementContext</text><path d="M891 307C891 276.072 948.531 251 1019.5 251 1090.47 251 1148 276.072 1148 307 1148 337.928 1090.47 363 1019.5 363 948.531 363 891 337.928 891 307Z" stroke="#000000" stroke-width="2" stroke-miterlimit="8" fill="#FFFFFF" fill-rule="evenodd"/><text font-family="Calibri,Calibri_MSFontService,sans-serif" font-weight="700" font-size="12" transform="translate(955.182 311)">UserManagementContext</text><path d="M128 307C128 276.072 185.308 251 256 251 326.692 251 384 276.072 384 307 384 337.928 326.692 363 256 363 185.308 363 128 337.928 128 307Z" stroke="#000000" stroke-width="2" stroke-miterlimit="8" fill="#FFFFFF" fill-rule="evenodd"/><text font-family="Calibri,Calibri_MSFontService,sans-serif" font-weight="700" font-size="12" transform="translate(190.326 311)">ShopManagementContext</text><path d="M728 608C728 577.072 785.531 552 856.5 552 927.469 552 985 577.072 985 608 985 638.928 927.469 664 856.5 664 785.531 664 728 638.928 728 608Z" stroke="#000000" stroke-width="2" stroke-miterlimit="8" fill="#FFFFFF" fill-rule="evenodd"/><text font-family="Calibri,Calibri_MSFontService,sans-serif" font-weight="700" font-size="12" transform="translate(788.544 612)">OrderManagementContext</text><path d="M291 608C291 577.072 348.531 552 419.5 552 490.469 552 548 577.072 548 608 548 638.928 490.469 664 419.5 664 348.531 664 291 638.928 291 608Z" stroke="#000000" stroke-width="2" stroke-miterlimit="8" fill="#FFFFFF" fill-rule="evenodd"/><text font-family="Calibri,Calibri_MSFontService,sans-serif" font-weight="700" font-size="12" transform="translate(339.547 612)">PromotionManagementContext</text><path d="M255.002 250.416 255.381 244.669 256.466 238.863 258.312 233.068 260.79 227.35 263.962 221.705 267.755 216.141 272.112 210.584 277.094 205.161 282.573 199.808 288.617 194.582 295.219 189.49 302.252 184.528 309.724 179.694 317.693 174.988 326.036 170.409 334.826 166.014 353.437 157.867 373.302 150.473 394.292 143.956 416.282 138.443 438.959 133.996 462.137 130.738 485.755 128.671 502.817 128.189 502.874 130.188 485.841 130.669 485.9 130.666 462.337 132.728 462.389 132.722 439.264 135.972 439.317 135.963 416.692 140.401 416.743 140.39 394.806 145.89 394.859 145.875 373.921 152.375 373.974 152.357 354.161 159.732 354.213 159.711 335.651 167.836 335.697 167.814 326.947 172.189 326.981 172.171 318.669 176.734 318.696 176.718 310.758 181.406 310.793 181.384 303.356 186.197 303.389 186.174 296.389 191.112 296.423 191.086 289.861 196.149 289.904 196.114 283.904 201.301 283.949 201.26 278.511 206.572 278.549 206.534 273.611 211.909 273.662 211.849 269.349 217.349 269.389 217.295 265.639 222.795 265.684 222.722 262.559 228.284 262.605 228.192 260.168 233.817 260.203 233.723 258.39 239.411 258.421 239.291 257.358 244.978 257.373 244.86 256.998 250.548ZM501.4 125.228 509.509 129 501.626 133.224Z"/><path d="M0.0776866-0.996978 4.95985-0.616549 9.91048 0.476445 14.8482 2.3361 19.6991 4.88921 24.4658 8.06702 29.2168 11.8678 33.8967 16.2315 38.5072 21.221 42.9805 26.7654 47.4488 32.8699 51.7251 39.473 55.9309 46.5664 60.0739 54.0991 64.0282 62.0705 67.8535 70.4736 71.5547 79.2561 78.5088 97.9257 84.7744 117.913 90.2236 139.021 94.9204 161.064 98.6779 183.86 101.433 207.217 103.187 230.889 103.75 254.789 104.312 278.664 104.31 278.614 106.06 302.239 106.056 302.195 108.806 325.508 108.799 325.462 112.549 348.212 112.54 348.166 117.228 370.104 117.218 370.062 122.656 391.125 122.642 391.076 128.892 411.013 128.876 410.966 135.751 429.591 135.734 429.549 139.422 438.299 139.41 438.273 143.223 446.648 143.207 446.615 147.207 454.615 147.192 454.586 151.254 462.086 151.233 462.049 155.421 469.049 155.398 469.013 159.711 475.576 159.686 475.54 164.061 481.602 164.024 481.554 168.524 487.054 168.489 487.014 172.989 491.951 172.932 491.894 177.557 496.206 177.5 496.157 182.187 499.907 182.117 499.855 186.805 502.98 186.711 502.925 191.523 505.425 191.419 505.378 196.169 507.191 195.99 507.141 198.972 507.68 198.617 509.648 195.543 509.092 190.652 507.226 185.741 504.675 180.972 501.495 176.221 497.695 171.538 493.329 166.993 488.341 162.457 482.797 158.051 476.692 153.715 470.094 149.506 463.058 145.425 455.524 141.41 447.493 137.584 439.089 133.882 430.305 126.991 411.635 120.726 391.65 115.276 370.542 110.58 348.561 106.822 325.765 104.067 302.408 102.313 278.736 101.75 254.836 101.188 230.961 101.19 231.011 99.4402 207.386 99.4444 207.43 96.6944 184.117 96.7008 184.163 92.9508 161.413 92.9594 161.458 88.2719 139.458 88.2817 139.5 82.8442 118.437 82.8583 118.487 76.6083 98.5491 76.6254 98.5991 69.6879 79.9741 69.7035 80.0134 66.016 71.2634 66.0274 71.2893 62.2149 62.9143 62.2292 62.9444 58.2917 55.0069 58.3113 55.0444 54.1863 47.5444 54.2023 47.5725 50.0148 40.51 50.0356 40.5436 45.7856 33.9811 45.8181 34.0281 41.3806 27.9656 41.4092 28.0029 36.9717 22.5029 37.0156 22.5537 32.4531 17.6162 32.5055 17.6689 27.8805 13.3564 27.9378 13.4059 23.2503 9.65587 23.3203 9.70705 18.6328 6.58205 18.7218 6.63492 13.9718 4.13492 14.085 4.18583 9.27254 2.37333 9.40941 2.41398 4.59691 1.35148 4.73481 1.37198-0.0776866 0.996978ZM197.989 504.525 205.405 509.525 196.955 512.458Z" transform="matrix(1.83697e-16 1 1 -1.83697e-16 256 363)"/><path d="M384.015 306 431.339 306.688 454.545 307.563 477.184 308.752 499.073 310.19 520.026 311.879 539.918 313.818 558.437 315.945 567.197 317.134 575.52 318.26 583.473 319.513 590.925 320.765 597.94 322.081 604.522 323.397 610.547 324.778 616.012 326.16 620.985 327.608 625.337 329.058 629.138 330.515 632.348 331.992 634.887 333.555 636.858 335.118 638.112 336.888 638.547 338.629 638.742 340.188 638.673 339.928 639.298 341.428 639.179 341.218 640.242 342.656 640.175 342.574 641.55 344.074 641.41 343.948 645.348 346.886 645.218 346.804 650.53 349.616 650.449 349.578 657.011 352.328 656.943 352.302 664.756 354.927 664.71 354.913 673.523 357.413 673.479 357.402 683.292 359.714 683.259 359.707 693.884 361.832 693.855 361.827 705.23 363.764 705.202 363.76 717.202 365.447 717.176 365.444 729.739 366.881 729.716 366.879 742.716 368.067 742.686 368.064 755.998 368.877 755.965 368.875 783.09 369.625 783.042 369.625 810.229 369.063 810.203 369.064 823.516 368.439 823.495 368.44 836.432 367.565 836.416 367.566 848.978 366.504 848.954 366.506 861.017 365.193 861 365.195 872.375 363.758 872.349 363.762 882.974 362.137 882.949 362.141 892.762 360.391 892.729 360.397 901.542 358.522 901.5 358.532 909.25 356.532 909.203 356.545 915.828 354.483 915.754 354.509 921.066 352.384 920.847 352.505 923.419 350.625 924.599 352.24 921.926 354.194 916.46 356.381 909.774 358.462 901.979 360.474 893.129 362.357 883.288 364.112 872.638 365.74 861.242 367.181 849.159 368.495 836.576 369.56 823.62 370.436 810.284 371.062 783.059 371.625 755.893 370.874 742.549 370.06 729.523 368.87 716.936 367.43 704.909 365.738 693.505 363.796 682.85 361.665 672.999 359.343 664.142 356.831 656.272 354.186 649.634 351.405 644.214 348.535 640.139 345.495 638.665 343.887 637.499 342.309 636.775 340.572 636.57 338.937 636.592 339.055 636.217 337.555 636.371 337.891 635.309 336.391 635.504 336.596 633.691 335.159 633.788 335.227 631.351 333.727 631.457 333.783 628.332 332.346 628.392 332.371 624.642 330.934 624.684 330.949 620.371 329.511 620.408 329.523 615.47 328.085 615.505 328.094 610.067 326.719 610.089 326.725 604.089 325.35 604.116 325.356 597.554 324.043 597.566 324.045 590.566 322.733 590.584 322.736 583.147 321.486 583.157 321.488 575.219 320.238 575.241 320.241 566.928 319.116 558.178 317.928 558.198 317.931 539.698 315.806 539.715 315.808 519.84 313.87 519.857 313.872 498.92 312.184 498.934 312.185 477.059 310.748 477.073 310.749 454.448 309.561 454.462 309.562 431.275 308.687 431.298 308.687 383.985 308ZM920.198 349.63 928.62 346.617 925.977 355.162Z"/><path d="M0.0776866-0.996978 4.95985-0.616549 9.91048 0.476445 14.8482 2.3361 19.6991 4.88921 24.4658 8.06702 29.2168 11.8678 33.8967 16.2315 38.5072 21.221 42.9805 26.7654 47.4488 32.8699 51.7251 39.473 55.9309 46.5664 60.0739 54.0991 64.0282 62.0705 67.8535 70.4736 71.5547 79.2561 78.5088 97.9257 84.7744 117.913 90.2236 139.021 94.9204 161.064 98.6779 183.86 101.433 207.217 103.187 230.889 103.75 254.789 104.312 278.664 104.31 278.614 106.06 302.239 106.056 302.195 108.806 325.508 108.799 325.462 112.549 348.212 112.54 348.166 117.228 370.104 117.218 370.062 122.656 391.125 122.642 391.076 128.892 411.013 128.876 410.966 135.751 429.591 135.734 429.549 139.422 438.299 139.41 438.273 143.223 446.648 143.207 446.615 147.207 454.615 147.192 454.586 151.254 462.086 151.233 462.049 155.421 469.049 155.398 469.013 159.711 475.576 159.686 475.54 164.061 481.602 164.024 481.554 168.524 487.054 168.489 487.014 172.989 491.951 172.932 491.894 177.557 496.206 177.5 496.157 182.187 499.907 182.117 499.855 186.805 502.98 186.711 502.925 191.523 505.425 191.419 505.378 196.169 507.191 195.99 507.141 198.972 507.68 198.617 509.648 195.543 509.092 190.652 507.226 185.741 504.675 180.972 501.495 176.221 497.695 171.538 493.329 166.993 488.341 162.457 482.797 158.051 476.692 153.715 470.094 149.506 463.058 145.425 455.524 141.41 447.493 137.584 439.089 133.882 430.305 126.991 411.635 120.726 391.65 115.276 370.542 110.58 348.561 106.822 325.765 104.067 302.408 102.313 278.736 101.75 254.836 101.188 230.961 101.19 231.011 99.4402 207.386 99.4444 207.43 96.6944 184.117 96.7008 184.163 92.9508 161.413 92.9594 161.458 88.2719 139.458 88.2817 139.5 82.8442 118.437 82.8583 118.487 76.6083 98.5491 76.6254 98.5991 69.6879 79.9741 69.7035 80.0134 66.016 71.2634 66.0274 71.2893 62.2149 62.9143 62.2292 62.9444 58.2917 55.0069 58.3113 55.0444 54.1863 47.5444 54.2023 47.5725 50.0148 40.51 50.0356 40.5436 45.7856 33.9811 45.8181 34.0281 41.3806 27.9656 41.4092 28.0029 36.9717 22.5029 37.0156 22.5537 32.4531 17.6162 32.5055 17.6689 27.8805 13.3564 27.9378 13.4059 23.2503 9.65587 23.3203 9.70705 18.6328 6.58205 18.7218 6.63492 13.9718 4.13492 14.085 4.18583 9.27254 2.37333 9.40941 2.41398 4.59691 1.35148 4.73481 1.37198-0.0776866 0.996978ZM197.989 504.525 205.405 509.525 196.955 512.458Z" transform="matrix(-1.83697e-16 -1 -1 1.83697e-16 856.525 552.405)"/><path d="M0.0481369-0.998841 10.4623-0.496952 20.8588 0.826236 31.1257 3.09377 41.0757 6.05357 50.7079 9.83092 59.9627 14.175 68.7195 19.2149 76.8429 24.7564 84.4068 30.7445 91.2238 37.2459 97.1603 44.0666 102.285 51.2153 106.343 58.5711 109.392 66.1934 111.303 73.9637 111.934 81.6683 112.559 89.2933 112.534 89.1362 114.409 96.7612 114.366 96.6286 117.366 104.129 117.313 104.017 121.313 111.267 121.25 111.167 126.313 118.23 126.254 118.156 132.129 124.906 132.065 124.839 138.815 131.276 138.749 131.218 146.186 137.156 146.123 137.109 154.248 142.609 154.186 142.571 162.874 147.571 162.8 147.532 171.987 151.845 171.928 151.819 181.49 155.569 181.41 155.542 191.285 158.479 191.216 158.461 201.403 160.711 201.314 160.695 211.626 162.008 211.546 162.001 215.201 162.168 215.11 164.166 211.414 163.997 201.016 162.674 190.749 160.406 180.799 157.446 171.167 153.669 161.912 149.325 153.157 144.286 144.969 138.744 137.467 132.754 130.651 126.254 124.715 119.433 119.59 112.285 115.532 104.929 112.483 97.3066 110.572 89.5363 109.941 81.8317 109.316 74.2067 109.341 74.3638 107.466 66.7388 107.509 66.8714 104.509 59.3714 104.562 59.4831 100.562 52.2331 100.625 52.3326 95.5622 45.2701 95.6207 45.344 89.7457 38.594 89.8098 38.6612 83.0598 32.2237 83.1293 32.284 75.6293 26.3465 75.6865 26.3886 67.624 20.8886 67.6887 20.9292 59.0012 15.9292 59.0751 15.9677 49.8876 11.6552 49.9474 11.681 40.3849 7.93097 40.4649 7.95849 30.5899 5.02099 30.6593 5.03897 20.4718 2.78897 20.5612 2.8045 10.2487 1.492 10.3269 1.49884-0.0481369 0.998841ZM214.007 159.11 221.815 163.472 213.641 167.102Z" transform="matrix(-1.83697e-16 -1 -1 1.83697e-16 328.472 568.815)"/><path d="M0.22723-0.973841 2.27127-0.496899 4.45794 0.91386 6.47712 3.06765 8.42565 6.05539 10.3414 9.69527 12.1807 14.0082 14.0088 19.0512 15.8331 24.713 17.5915 31.0556 19.3475 37.9544 21.0406 45.4789 22.6689 53.558 24.2965 62.1343 25.8617 71.2125 27.364 80.7893 28.8032 90.864 30.1796 101.312 31.4934 112.135 33.9952 134.964 36.1218 159.045 37.9354 184.123 39.4364 210.139 40.4995 236.78 41.1874 263.858 41.4375 291.125 41.1874 318.391 40.562 345.469 39.4989 372.11 38.0606 398.062 36.3095 423.202 34.2456 447.282 31.8687 470.112 30.5546 480.938 29.1786 491.383 27.8024 501.455 26.3628 511.031 24.8602 520.109 23.2946 528.689 21.6664 536.767 20.0369 544.288 18.3437 551.186 16.6497 557.523 14.9513 563.184 13.1829 568.237 11.3441 572.548 9.46377 576.244 7.34483 578.754 5.81668 577.463 7.86093 575.042 7.73372 575.234 9.54622 571.672 9.51766 571.733 11.3302 567.483 11.3061 567.545 13.0561 562.545 13.0422 562.588 14.7297 556.963 14.7214 556.992 16.4089 550.679 16.4038 550.699 18.0913 543.824 18.0852 543.851 19.7102 536.351 19.7072 536.365 21.3322 528.302 21.3287 528.32 22.8912 519.758 22.8884 519.774 24.3884 510.712 24.3861 510.726 25.8236 501.164 25.8217 501.177 27.1967 491.115 27.1961 491.119 28.5711 480.682 28.5698 480.692 29.8823 469.879 29.8804 469.896 32.2554 447.084 32.2537 447.102 34.3162 423.04 34.3149 423.056 36.0649 397.931 36.064 397.945 37.5015 372.007 37.5008 372.023 38.5633 345.398 38.5628 345.414 39.1878 318.352 39.1875 318.366 39.4375 291.116 39.4375 291.134 39.1875 263.884 39.1878 263.9 38.5003 236.838 38.5008 236.852 37.4383 210.227 37.4392 210.245 35.9392 184.245 35.9401 184.26 34.1276 159.197 34.1289 159.213 32.0039 135.15 32.006 135.171 29.506 112.359 29.5073 112.37 28.1948 101.558 28.1961 101.568 26.8211 91.1306 26.8225 91.1414 25.385 81.0789 25.3871 81.0925 23.8871 71.53 23.8895 71.5449 22.327 62.4824 22.33 62.4989 20.705 53.9365 20.7072 53.9476 19.0822 45.8851 19.0869 45.907 17.3994 38.407 17.4059 38.4342 15.6559 31.5592 15.6613 31.5797 13.9113 25.2672 13.9232 25.3067 12.1107 19.6817 12.1224 19.7158 10.3099 14.7158 10.3302 14.7673 8.51766 10.5173 8.55258 10.5907 6.67758 7.02825 6.72489 7.10877 4.84989 4.23377 4.95796 4.37144 3.08296 2.37144 3.27037 2.5278 1.33287 1.2778 1.64777 1.41134-0.22723 0.973841ZM10.0975 580.435 1.33333 582.221 5.16299 574.138Z" transform="matrix(-1.83697e-16 -1 -1 1.83697e-16 930.221 268.333)"/><path d="M419 551.894 419.376 533.937 420.44 516.085 422.194 498.548 424.512 481.449 427.393 464.911 430.839 448.996 434.725 434.02 438.988 419.911 443.695 406.983 448.717 395.37 451.362 390.017 454.067 385.047 456.78 380.441 459.626 376.267 462.474 372.533 465.397 369.166 468.339 366.287 471.362 363.908 474.466 361.968 477.529 360.599 480.692 359.677 483.792 359.418 486.792 359.168 486.595 359.205 489.595 358.33 489.467 358.377 492.405 357.064 492.274 357.134 495.212 355.259 495.131 355.317 498.069 353.004 497.996 353.068 500.933 350.255 500.863 350.33 503.675 347.018 503.649 347.05 506.524 343.362 506.48 343.423 509.23 339.298 509.206 339.336 511.956 334.774 511.93 334.82 514.555 329.883 514.543 329.905 517.168 324.655 517.144 324.707 522.144 313.082 522.123 313.135 526.81 300.26 526.793 300.312 531.043 286.312 531.032 286.352 534.907 271.352 534.898 271.39 538.335 255.577 538.327 255.618 541.202 239.118 541.197 239.156 543.509 222.093 543.505 222.128 545.255 204.566 545.252 204.605 546.314 186.855 546.313 186.897 546.517 175.647 548.517 175.684 548.312 186.954 547.247 204.744 545.493 222.344 543.176 239.443 540.294 255.982 536.848 271.834 532.963 286.873 528.699 300.919 523.992 313.846 518.97 325.524 516.326 330.811 513.683 335.783 510.907 340.388 508.124 344.563 505.213 348.296 502.354 351.664 499.344 354.546 496.33 356.919 493.288 358.86 490.221 360.231 487.058 361.153 483.958 361.411 480.958 361.661 481.155 361.625 478.155 362.5 478.283 362.453 475.345 363.765 475.467 363.7 472.467 365.575 472.556 365.513 469.619 367.826 469.699 367.755 466.824 370.567 466.88 370.508 464.005 373.82 464.045 373.771 461.233 377.459 461.264 377.416 458.451 381.541 458.487 381.485 455.799 386.047 455.816 386.018 453.128 390.955 453.147 390.92 450.522 396.233 450.543 396.187 445.543 407.749 445.565 407.694 440.877 420.569 440.895 420.517 436.645 434.579 436.655 434.541 432.78 449.478 432.79 449.439 429.352 465.314 429.36 465.274 426.485 481.774 426.491 481.737 424.178 498.799 424.183 498.764 422.433 516.264 422.436 516.224 421.373 534.037 421.375 533.998 421 551.936ZM543.494 176.926 547.639 169 551.492 177.072Z"/><path d="M0.164399 0.986394-2.0856 1.36139-1.82299 1.27925-4.07299 2.34175-3.8753 2.21837-6.0628 3.96837-5.95117 3.86413-8.07617 6.17663-7.99996 6.08291-10.0625 8.95791-10.0107 8.87789-12.0107 12.3154-11.9748 12.2481-13.8498 16.1231-13.8253 16.0682-15.5753 20.3182-15.5465 20.2389-18.609 29.9264-18.5858 29.8395-20.9608 40.652-20.9459 40.5668-22.4459 52.0668-22.4386 51.9846-23.0011 63.9221-23.0017 63.8172-22.3142 75.6922-22.328 75.5744-20.2655 87.1369-20.2897 87.0334-17.1648 97.7834-17.2028 97.6758-13.1403 107.363-13.1841 107.272-10.8716 111.522-10.9097 111.458-8.4097 115.333-8.45523 115.268-5.83023 118.706-5.90236 118.621-3.15236 121.496-3.24824 121.408-0.37324 123.721-0.480053 123.646 2.39495 125.396 2.21513 125.31 5.15263 126.372 4.93653 126.32 7.95678 126.698 11.1295 127.227 14.3034 128.847 17.3933 131.411 20.2976 134.832 23.105 138.979 25.7693 143.864 28.2975 149.363 30.631 155.48 32.7709 162.089 34.7203 169.194 36.4171 176.673 37.8634 184.471 39.9349 200.792 40.347 210.975 38.3486 211.056 37.9383 200.915 37.9455 201.001 35.883 184.751 35.8918 184.807 34.4543 177.057 34.4623 177.096 32.7748 169.659 32.7856 169.702 30.8481 162.64 30.8611 162.683 28.7361 156.121 28.7532 156.169 26.4407 150.106 26.4664 150.168 23.9664 144.73 23.9971 144.791 21.3721 139.979 21.4219 140.061 18.6719 135.998 18.7377 136.085 15.9252 132.772 16.0489 132.895 13.1114 130.457 13.2952 130.578 10.3577 129.078 10.6481 129.174 7.6481 128.674 7.68847 128.68 4.57751 128.291 1.44064 127.156-1.57581 125.32-4.55257 122.926-7.38605 119.964-10.0688 116.45-12.6105 112.511-14.9651 108.183-19.0693 98.3965-22.2251 87.5405-24.3074 75.8671-25.0014 63.8804-24.4344 51.8491-22.9235 40.2652-20.5296 29.3665-17.4408 19.5958-15.6632 15.279-13.7585 11.3426-11.7154 7.83086-9.58977 4.86793-7.372 2.45448-5.03309 0.583345-2.55141-0.588559-0.164399-0.986394ZM43.2906 209.521 39.6173 217.677 35.2972 209.845Z" transform="matrix(-6.12323e-17 -1 -1 6.12323e-17 765.677 647.617)"/><path d="M0.0637002-0.997969 6.00041-0.61903 12.0552 0.528199 17.9748 2.37408 23.9433 4.97738 29.7728 8.20896 35.5899 12.1292 41.2722 16.6119 46.9469 21.7822 52.425 27.4491 57.8333 33.675 63.1755 40.4626 68.3266 47.6868 73.3506 55.4113 78.1823 63.6314 82.8848 72.2212 87.463 81.2523 91.7899 90.6586 95.9296 100.443 103.571 120.989 110.338 142.603 116.039 165.219 120.611 188.583 124.056 212.574 126.124 236.88 126.667 254.739 124.668 254.8 124.125 236.968 124.129 237.022 122.066 212.772 122.073 212.83 118.635 188.892 118.644 188.942 114.081 165.63 114.093 165.682 108.405 143.119 108.421 143.174 101.671 121.611 101.688 121.661 94.0627 101.161 94.079 101.202 89.954 91.4521 89.9665 91.4804 85.654 82.1054 85.6706 82.1397 81.1081 73.1397 81.1228 73.1677 76.4353 64.6052 76.4504 64.6317 71.6379 56.4442 71.6617 56.4827 66.6617 48.7952 66.6858 48.8306 61.5608 41.6431 61.5892 41.681 56.2767 34.931 56.3076 34.9683 50.9326 28.7808 50.9685 28.82 45.531 23.195 45.5765 23.2392 39.9515 18.1142 40.0056 18.1601 34.3806 13.7226 34.4411 13.7668 28.6911 9.89177 28.7652 9.93711 23.0152 6.74961 23.1002 6.7916 17.2252 4.2291 17.3273 4.26716 11.5148 2.45466 11.6263 2.48252 5.68884 1.35752 5.8113 1.37297-0.0637002 0.997969ZM129.625 253.315 125.871 261.433 121.629 253.558Z" transform="matrix(1 0 0 -1 985 608.433)"/><path d="M0.0277671-0.999614 9.04879-0.74903 18.0349-0.120631 27.0208 1.01047 35.9382 2.51762 44.7294 4.40145 53.533 6.66523 70.6664 12.3764 87.239 19.4072 103.185 27.6939 118.189 37.111 132.253 47.5331 145.255 58.9021 156.868 71.0806 162.217 77.3733 167.185 83.9136 171.775 90.5786 175.929 97.3132 179.642 104.235 182.979 111.224 185.816 118.347 188.147 125.468 190.04 132.721 191.364 139.975 192.248 147.298 192.499 154.591 192.749 161.841 192.743 161.755 193.618 169.005 193.609 168.945 194.921 176.133 194.905 176.058 196.78 183.183 196.764 183.129 199.076 190.254 199.054 190.193 201.867 197.255 201.84 197.194 205.152 204.132 205.129 204.086 208.817 210.899 208.791 210.854 212.916 217.604 212.886 217.558 217.449 224.183 217.418 224.141 222.356 230.579 222.331 230.548 227.581 236.861 227.534 236.808 239.159 248.933 239.098 248.874 251.973 260.186 251.908 260.134 265.908 270.509 265.842 270.464 280.842 279.839 280.775 279.801 296.588 288.051 296.516 288.017 313.016 295.017 312.941 294.989 330.004 300.676 329.936 300.656 338.686 302.906 338.646 302.897 347.458 304.772 347.418 304.764 356.23 306.264 356.187 306.258 365.125 307.383 365.07 307.377 374.007 308.002 373.959 308 376.271 308.05 376.228 310.049 373.892 309.999 364.903 309.371 355.916 308.239 347.062 306.732 338.209 304.849 329.404 302.585 312.271 296.874 295.698 289.842 279.815 281.556 264.749 272.139 250.684 261.716 237.745 250.348 226.066 238.167 220.781 231.812 215.816 225.338 211.223 218.67 207.071 211.874 203.358 205.016 200.021 198.026 197.184 190.902 194.853 183.719 192.961 176.53 191.636 169.275 190.752 161.952 190.501 154.659 190.251 147.409 190.257 147.495 189.382 140.245 189.391 140.305 188.079 133.117 188.095 133.19 186.22 126.002 186.237 126.061 183.925 118.999 183.946 119.057 181.133 111.995 181.16 112.056 177.848 105.118 177.869 105.16 174.181 98.2852 174.211 98.3375 170.086 91.65 170.114 91.6922 165.551 85.0672 165.579 85.1049 160.641 78.6049 160.676 78.6477 155.363 72.3977 155.401 72.4401 143.839 60.3151 143.904 60.3778 130.967 49.0653 131.03 49.1159 117.03 38.7409 117.093 38.7845 102.156 29.4095 102.226 29.4498 86.3514 21.1998 86.4219 21.2331 69.9219 14.2331 69.9963 14.2612 52.9338 8.57368 53.001 8.59349 44.251 6.34349 44.2905 6.3528 35.5405 4.4778 35.5833 4.48602 26.7083 2.98602 26.7501 2.99217 17.8126 1.86717 17.8677 1.87256 8.93024 1.24756 8.97223 1.24961-0.0277671 0.999614ZM375.002 305.022 382.915 309.192 374.831 313.02Z" transform="matrix(-1.83697e-16 -1 -1 1.83697e-16 947.192 567.915)"/><path d="M899.042 102.046 899.31 101.153 900.24 100.316 902.613 99.0952 906.178 97.9287 910.696 96.9742 916.059 96.1539 921.975 95.5246 928.331 95.0841 934.875 94.9582 941.41 95.0839 947.692 95.398 953.601 95.9009 958.983 96.534 963.646 97.6003 963.2 99.55 958.59 98.4957 958.696 98.514 953.383 97.889 953.415 97.8923 947.54 97.3923 947.575 97.3946 941.325 97.0821 941.356 97.0832 934.856 96.9582 934.894 96.9582 928.394 97.0832 928.444 97.081 922.132 97.5185 922.168 97.5153 916.293 98.1403 916.339 98.1344 911.026 98.9469 911.082 98.9368 906.644 99.8743 906.748 99.8463 903.311 100.971 903.457 100.91 901.27 102.035 901.481 101.889 900.856 102.452 901.145 101.996 900.958 102.621ZM963.635 94.3642 969.633 101 960.726 101.816Z"/><path d="M856 118C856 105.297 867.193 95 881 95 894.807 95 906 105.297 906 118 906 130.703 894.807 141 881 141 867.193 141 856 130.703 856 118Z" stroke="#000000" stroke-width="2" stroke-miterlimit="8" fill="#FFFFFF" fill-rule="evenodd"/><text font-family="Calibri,Calibri_MSFontService,sans-serif" font-weight="700" font-size="12" transform="translate(878.025 122)">X</text><path d="M961 118C961 105.297 972.193 95 986 95 999.807 95 1011 105.297 1011 118 1011 130.703 999.807 141 986 141 972.193 141 961 130.703 961 118Z" stroke="#000000" stroke-width="2" stroke-miterlimit="8" fill="#FFFFFF" fill-rule="evenodd"/><text font-family="Calibri,Calibri_MSFontService,sans-serif" font-weight="700" font-size="12" transform="translate(983.236 122)">Y</text><rect x="856.5" y="146.5" width="155" height="22" stroke="#000000" stroke-width="1.33333" stroke-miterlimit="8" fill="#FFFFFF"/><text font-family="Calibri,Calibri_MSFontService,sans-serif" font-weight="700" font-size="12" transform="translate(899.756 161)">X consumes Y</text></g></svg>